<?xml version="1.0" encoding="UTF-8"?>
<svg id="Livello_1" data-name="Livello 1" xmlns="http://www.w3.org/2000/svg" xmlns:xlink="http://www.w3.org/1999/xlink" viewBox="0 0 1080 1080">
  <defs>
    <style>
      .cls-1 {
        fill: #575756;
        stroke: #575756;
      }

      .cls-1, .cls-2 {
        stroke-width: 79.96px;
      }

      .cls-1, .cls-2, .cls-3, .cls-4, .cls-5 {
        stroke-miterlimit: 10;
      }

      .cls-2 {
        fill: #f8b133;
        stroke: #f8b133;
      }

      .cls-6 {
        fill: #e8b4fa;
      }

      .cls-7 {
        fill: #fff;
      }

      .cls-8 {
        fill: #363637;
      }

      .cls-9 {
        fill: #868788;
      }

      .cls-3 {
        stroke: #fd0;
      }

      .cls-3, .cls-4 {
        stroke-width: 99.13px;
      }

      .cls-3, .cls-4, .cls-5 {
        fill: none;
      }

      .cls-4 {
        stroke: #c6c6c5;
      }

      .cls-5 {
        stroke: url(#Sfumatura_senza_nome_32);
        stroke-width: 100.68px;
      }
    </style>
    <linearGradient id="Sfumatura_senza_nome_32" data-name="Sfumatura senza nome 32" x1="72.51" y1="847.44" x2="716.71" y2="847.44" gradientTransform="translate(2.21 -.21) rotate(-.97) scale(1.01) skewX(-1.95)" gradientUnits="userSpaceOnUse">
      <stop offset="0" stop-color="#c6c6c5"/>
      <stop offset=".25" stop-color="#c9c4ca"/>
      <stop offset=".58" stop-color="#d4bedb"/>
      <stop offset=".95" stop-color="#e5b5f6"/>
      <stop offset="1" stop-color="#e8b4fa"/>
    </linearGradient>
  </defs>
  <path class="cls-4" d="M543.12,93.41c-248.69,0-453.99,201.46-453.99,449.96s201.6,449.96,450.29,449.96"/>
  <path class="cls-3" d="M541.85,93.41c248.69,0,449.01,201.46,449.01,449.96,0,248.51-201.6,449.96-450.29,449.96"/>
  <path class="cls-5" d="M112.82,682.7c22.58,75.37,65.23,145.14,127.59,200.82,126.72,113.13,302.03,138.78,454.92,82.21"/>
  <g>
    <path class="cls-1" d="M541.79,180.42c-200.6,0-363.22,162.5-363.22,362.96s162.62,362.96,363.22,362.96"/>
    <path class="cls-9" d="M541.79,275.23s.18,210.74,0,211.14c0,0-129.7,60.68-176.89,82.55l176.89-293.69Z"/>
    <path class="cls-8" d="M541.79,486.36s-.08,123.73,0,185.18c0,0-135.38-78.13-176.89-102.63l176.89-82.55Z"/>
    <path class="cls-9" d="M541.79,671.54c.03,44.27,0,141.97,0,141.97l-176.89-244.6,176.89,102.63Z"/>
  </g>
  <g>
    <path class="cls-2" d="M541.87,181.11c200.6,0,363.22,162.5,363.22,362.96,0,200.46-162.62,362.96-363.22,362.96"/>
    <path class="cls-7" d="M785.43,579.44c.06-3.12-1.01-3.63-3.81-3.58-9.08,.17-18.16,.09-27.24,.03-1.17,0-3.05,.82-2.73-1.84,1.43-12.09,1.55-24.2,.38-36.31-.26-2.7,.87-3.1,3.18-3.07,9.08,.1,18.16-.03,27.24,.09,2.34,.03,2.98-.7,2.96-3.01-.12-11.07-.16-22.15,.02-33.23,.05-2.84-.98-3.22-3.45-3.2-11.67,.12-23.35-.05-35.02,.13-3.01,.05-4.45-.69-5.61-3.69-10.37-26.86-26.89-49.3-49.49-67.13-32.85-25.93-70.81-37.59-112.18-38.68-12.6-.33-25.2-.32-37.81-.25v35.19c13,.02,26.01,.11,39,.41,32.96,.75,62.88,11.02,88.24,32.76,13.22,11.33,23.51,24.95,31.29,41.32h-4.02c-51.5,0-103.01,0-154.51,.04v39.29c36.32,.02,72.65,.02,108.97,.02,19.1,0,38.2,.08,57.3-.08,3.07-.02,4.08,.94,4.33,3.88,.94,10.94,.97,21.86,0,32.8-.29,3.25-1.06,4.74-4.96,4.72-38.08-.19-76.16-.11-114.24-.11-17.14,0-34.28,0-51.42,0v39.11c15.17,0,30.34,0,45.51,0,36.19,0,72.37,0,108.56,0,4.4,0,4.39,0,2.32,3.82-20.63,38.16-53.33,59.11-95.35,66.78-10.7,1.95-21.5,2.57-32.35,2.58-9.56,0-19.12,0-28.69,0v35.28c10.36,0,20.72-.02,31.08-.05,15.1-.04,30.13-1.3,44.88-4.71,57.85-13.38,100.13-45.74,123.22-101.33,.88-2.11,2.09-2.41,4.01-2.4,12.26,.05,24.53-.05,36.79,.08,2.7,.03,3.62-.61,3.57-3.47-.18-10.72-.2-21.45,.01-32.16Z"/>
  </g>
  <polygon class="cls-6" points="822.95 914.31 721.97 1043.37 661.67 885.33 822.95 914.31"/>
</svg>